<mxfile host="app.diagrams.net" modified="2023-01-18T04:42:42.909Z" agent="5.0 (Windows NT 10.0; Win64; x64) AppleWebKit/537.36 (KHTML, like Gecko) Chrome/109.0.0.0 Safari/537.36" version="20.8.5" etag="9AFVosXHUFB3MBD_cf26" type="github">
  <diagram id="mVDjW-4QtW1EsHSSAXJo" name="第 1 页">
    <mxGraphModel dx="3160" dy="2265" grid="1" gridSize="10" guides="1" tooltips="1" connect="1" arrows="1" fold="1" page="1" pageScale="1" pageWidth="827" pageHeight="1169" math="0" shadow="0">
      <root>
        <mxCell id="0" />
        <mxCell id="1" parent="0" />
        <mxCell id="5SBofJwupiwyT_a2tiZA-46" style="edgeStyle=none;rounded=0;orthogonalLoop=1;jettySize=auto;html=1;exitX=1;exitY=0.25;exitDx=0;exitDy=0;" edge="1" parent="1" source="5SBofJwupiwyT_a2tiZA-38" target="5SBofJwupiwyT_a2tiZA-12">
          <mxGeometry relative="1" as="geometry" />
        </mxCell>
        <mxCell id="5SBofJwupiwyT_a2tiZA-47" style="edgeStyle=none;rounded=0;orthogonalLoop=1;jettySize=auto;html=1;exitX=1;exitY=0.5;exitDx=0;exitDy=0;entryX=0;entryY=0.5;entryDx=0;entryDy=0;entryPerimeter=0;" edge="1" parent="1" source="5SBofJwupiwyT_a2tiZA-38" target="5SBofJwupiwyT_a2tiZA-20">
          <mxGeometry relative="1" as="geometry" />
        </mxCell>
        <mxCell id="5SBofJwupiwyT_a2tiZA-48" style="edgeStyle=none;rounded=0;orthogonalLoop=1;jettySize=auto;html=1;exitX=1;exitY=0.75;exitDx=0;exitDy=0;entryX=0;entryY=0;entryDx=0;entryDy=48.75;entryPerimeter=0;" edge="1" parent="1" source="5SBofJwupiwyT_a2tiZA-38" target="5SBofJwupiwyT_a2tiZA-28">
          <mxGeometry relative="1" as="geometry" />
        </mxCell>
        <mxCell id="5SBofJwupiwyT_a2tiZA-38" value="" style="rounded=0;whiteSpace=wrap;html=1;dashed=1;dashPattern=1 4;fillColor=#d5e8d4;strokeColor=#82b366;" vertex="1" parent="1">
          <mxGeometry x="1050" y="-40" width="330" height="870" as="geometry" />
        </mxCell>
        <mxCell id="5SBofJwupiwyT_a2tiZA-37" value="" style="rounded=0;whiteSpace=wrap;html=1;dashed=1;dashPattern=1 4;fillColor=#f5f5f5;fontColor=#333333;strokeColor=#666666;" vertex="1" parent="1">
          <mxGeometry x="80" y="10" width="590" height="770" as="geometry" />
        </mxCell>
        <mxCell id="5SBofJwupiwyT_a2tiZA-1" style="edgeStyle=orthogonalEdgeStyle;rounded=0;orthogonalLoop=1;jettySize=auto;html=1;entryX=0;entryY=0.5;entryDx=0;entryDy=0;" edge="1" parent="1" source="5SBofJwupiwyT_a2tiZA-4" target="5SBofJwupiwyT_a2tiZA-14">
          <mxGeometry relative="1" as="geometry" />
        </mxCell>
        <mxCell id="5SBofJwupiwyT_a2tiZA-2" style="edgeStyle=orthogonalEdgeStyle;rounded=0;orthogonalLoop=1;jettySize=auto;html=1;entryX=0;entryY=0.5;entryDx=0;entryDy=0;" edge="1" parent="1" source="5SBofJwupiwyT_a2tiZA-4" target="5SBofJwupiwyT_a2tiZA-6">
          <mxGeometry relative="1" as="geometry" />
        </mxCell>
        <mxCell id="5SBofJwupiwyT_a2tiZA-3" style="edgeStyle=orthogonalEdgeStyle;rounded=0;orthogonalLoop=1;jettySize=auto;html=1;entryX=0;entryY=0.5;entryDx=0;entryDy=0;" edge="1" parent="1" source="5SBofJwupiwyT_a2tiZA-4" target="5SBofJwupiwyT_a2tiZA-22">
          <mxGeometry relative="1" as="geometry" />
        </mxCell>
        <mxCell id="5SBofJwupiwyT_a2tiZA-4" value="Actor" style="shape=umlActor;verticalLabelPosition=bottom;verticalAlign=top;html=1;outlineConnect=0;" vertex="1" parent="1">
          <mxGeometry x="-110" y="303.75" width="110" height="182.5" as="geometry" />
        </mxCell>
        <mxCell id="5SBofJwupiwyT_a2tiZA-51" style="edgeStyle=none;rounded=0;orthogonalLoop=1;jettySize=auto;html=1;exitX=1;exitY=0.5;exitDx=0;exitDy=0;entryX=0;entryY=0.25;entryDx=0;entryDy=0;fontSize=48;" edge="1" parent="1" source="5SBofJwupiwyT_a2tiZA-6" target="5SBofJwupiwyT_a2tiZA-49">
          <mxGeometry relative="1" as="geometry" />
        </mxCell>
        <mxCell id="5SBofJwupiwyT_a2tiZA-6" value="" style="rounded=1;whiteSpace=wrap;html=1;strokeWidth=2;fillWeight=4;hachureGap=8;hachureAngle=45;sketch=1;fontSize=24;fillColor=#f5f5f5;fontColor=#333333;strokeColor=#666666;" vertex="1" parent="1">
          <mxGeometry x="260" y="60" width="370" height="190" as="geometry" />
        </mxCell>
        <mxCell id="5SBofJwupiwyT_a2tiZA-7" value="电商项目" style="text;strokeColor=none;fillColor=none;html=1;fontSize=24;fontStyle=1;verticalAlign=middle;align=center;" vertex="1" parent="1">
          <mxGeometry x="395" y="70" width="100" height="40" as="geometry" />
        </mxCell>
        <mxCell id="5SBofJwupiwyT_a2tiZA-8" value="商品管理" style="rounded=1;whiteSpace=wrap;html=1;strokeWidth=2;fillWeight=4;hachureGap=8;hachureAngle=45;fillColor=#d5e8d4;sketch=1;fontSize=24;strokeColor=#82b366;" vertex="1" parent="1">
          <mxGeometry x="295" y="120" width="110" height="45" as="geometry" />
        </mxCell>
        <mxCell id="5SBofJwupiwyT_a2tiZA-9" value="订单管理" style="rounded=1;whiteSpace=wrap;html=1;strokeWidth=2;fillWeight=4;hachureGap=8;hachureAngle=45;fillColor=#d5e8d4;sketch=1;fontSize=24;strokeColor=#82b366;" vertex="1" parent="1">
          <mxGeometry x="295" y="190" width="106" height="40" as="geometry" />
        </mxCell>
        <mxCell id="5SBofJwupiwyT_a2tiZA-10" value="用户管理" style="rounded=1;whiteSpace=wrap;html=1;strokeWidth=2;fillWeight=4;hachureGap=8;hachureAngle=45;fillColor=#d5e8d4;sketch=1;fontSize=24;strokeColor=#82b366;" vertex="1" parent="1">
          <mxGeometry x="490" y="120" width="120" height="45" as="geometry" />
        </mxCell>
        <mxCell id="5SBofJwupiwyT_a2tiZA-11" value="广告管理" style="rounded=1;whiteSpace=wrap;html=1;strokeWidth=2;fillWeight=4;hachureGap=8;hachureAngle=45;fillColor=#d5e8d4;sketch=1;fontSize=24;strokeColor=#82b366;" vertex="1" parent="1">
          <mxGeometry x="490" y="190" width="110" height="40" as="geometry" />
        </mxCell>
        <mxCell id="5SBofJwupiwyT_a2tiZA-12" value="电商数据库" style="shape=cylinder3;whiteSpace=wrap;html=1;boundedLbl=1;backgroundOutline=1;size=15;fontSize=24;fillColor=#dae8fc;strokeColor=#6c8ebf;" vertex="1" parent="1">
          <mxGeometry x="1450" y="117.5" width="140" height="75" as="geometry" />
        </mxCell>
        <mxCell id="5SBofJwupiwyT_a2tiZA-50" style="edgeStyle=none;rounded=0;orthogonalLoop=1;jettySize=auto;html=1;entryX=0;entryY=0.5;entryDx=0;entryDy=0;fontSize=48;" edge="1" parent="1" source="5SBofJwupiwyT_a2tiZA-14" target="5SBofJwupiwyT_a2tiZA-49">
          <mxGeometry relative="1" as="geometry" />
        </mxCell>
        <mxCell id="5SBofJwupiwyT_a2tiZA-14" value="" style="rounded=1;whiteSpace=wrap;html=1;strokeWidth=2;fillWeight=4;hachureGap=8;hachureAngle=45;sketch=1;fontSize=24;fillColor=#f5f5f5;fontColor=#333333;strokeColor=#666666;" vertex="1" parent="1">
          <mxGeometry x="260" y="300" width="370" height="190" as="geometry" />
        </mxCell>
        <mxCell id="5SBofJwupiwyT_a2tiZA-15" value="后台系统" style="text;strokeColor=none;fillColor=none;html=1;fontSize=24;fontStyle=1;verticalAlign=middle;align=center;" vertex="1" parent="1">
          <mxGeometry x="395" y="310" width="100" height="40" as="geometry" />
        </mxCell>
        <mxCell id="5SBofJwupiwyT_a2tiZA-16" value="物流管理" style="rounded=1;whiteSpace=wrap;html=1;strokeWidth=2;fillWeight=4;hachureGap=8;hachureAngle=45;fillColor=#d5e8d4;sketch=1;fontSize=24;strokeColor=#82b366;" vertex="1" parent="1">
          <mxGeometry x="295" y="360" width="110" height="45" as="geometry" />
        </mxCell>
        <mxCell id="5SBofJwupiwyT_a2tiZA-17" value="订单管理" style="rounded=1;whiteSpace=wrap;html=1;strokeWidth=2;fillWeight=4;hachureGap=8;hachureAngle=45;fillColor=#d5e8d4;sketch=1;fontSize=24;strokeColor=#82b366;" vertex="1" parent="1">
          <mxGeometry x="295" y="430" width="106" height="40" as="geometry" />
        </mxCell>
        <mxCell id="5SBofJwupiwyT_a2tiZA-18" value="用户管理" style="rounded=1;whiteSpace=wrap;html=1;strokeWidth=2;fillWeight=4;hachureGap=8;hachureAngle=45;fillColor=#d5e8d4;sketch=1;fontSize=24;strokeColor=#82b366;" vertex="1" parent="1">
          <mxGeometry x="490" y="360" width="120" height="45" as="geometry" />
        </mxCell>
        <mxCell id="5SBofJwupiwyT_a2tiZA-19" value="商家管理" style="rounded=1;whiteSpace=wrap;html=1;strokeWidth=2;fillWeight=4;hachureGap=8;hachureAngle=45;fillColor=#d5e8d4;sketch=1;fontSize=24;strokeColor=#82b366;" vertex="1" parent="1">
          <mxGeometry x="490" y="430" width="110" height="40" as="geometry" />
        </mxCell>
        <mxCell id="5SBofJwupiwyT_a2tiZA-20" value="后台数据库" style="shape=cylinder3;whiteSpace=wrap;html=1;boundedLbl=1;backgroundOutline=1;size=15;fontSize=24;fillColor=#dae8fc;strokeColor=#6c8ebf;" vertex="1" parent="1">
          <mxGeometry x="1450" y="357.5" width="140" height="75" as="geometry" />
        </mxCell>
        <mxCell id="5SBofJwupiwyT_a2tiZA-52" style="edgeStyle=none;rounded=0;orthogonalLoop=1;jettySize=auto;html=1;exitX=1;exitY=0.5;exitDx=0;exitDy=0;entryX=0;entryY=0.75;entryDx=0;entryDy=0;fontSize=48;" edge="1" parent="1" source="5SBofJwupiwyT_a2tiZA-22" target="5SBofJwupiwyT_a2tiZA-49">
          <mxGeometry relative="1" as="geometry" />
        </mxCell>
        <mxCell id="5SBofJwupiwyT_a2tiZA-22" value="" style="rounded=1;whiteSpace=wrap;html=1;strokeWidth=2;fillWeight=4;hachureGap=8;hachureAngle=45;sketch=1;fontSize=24;fillColor=#f5f5f5;fontColor=#333333;strokeColor=#666666;" vertex="1" parent="1">
          <mxGeometry x="260" y="540" width="370" height="190" as="geometry" />
        </mxCell>
        <mxCell id="5SBofJwupiwyT_a2tiZA-23" value="广告系统" style="text;strokeColor=none;fillColor=none;html=1;fontSize=24;fontStyle=1;verticalAlign=middle;align=center;" vertex="1" parent="1">
          <mxGeometry x="395" y="550" width="100" height="40" as="geometry" />
        </mxCell>
        <mxCell id="5SBofJwupiwyT_a2tiZA-24" value="广告管理" style="rounded=1;whiteSpace=wrap;html=1;strokeWidth=2;fillWeight=4;hachureGap=8;hachureAngle=45;fillColor=#d5e8d4;sketch=1;fontSize=24;strokeColor=#82b366;" vertex="1" parent="1">
          <mxGeometry x="295" y="600" width="110" height="45" as="geometry" />
        </mxCell>
        <mxCell id="5SBofJwupiwyT_a2tiZA-25" value="报表管理" style="rounded=1;whiteSpace=wrap;html=1;strokeWidth=2;fillWeight=4;hachureGap=8;hachureAngle=45;fillColor=#d5e8d4;sketch=1;fontSize=24;strokeColor=#82b366;" vertex="1" parent="1">
          <mxGeometry x="295" y="670" width="106" height="40" as="geometry" />
        </mxCell>
        <mxCell id="5SBofJwupiwyT_a2tiZA-26" value="营销管理" style="rounded=1;whiteSpace=wrap;html=1;strokeWidth=2;fillWeight=4;hachureGap=8;hachureAngle=45;fillColor=#d5e8d4;sketch=1;fontSize=24;strokeColor=#82b366;" vertex="1" parent="1">
          <mxGeometry x="490" y="600" width="120" height="45" as="geometry" />
        </mxCell>
        <mxCell id="5SBofJwupiwyT_a2tiZA-27" value="创意库管理" style="rounded=1;whiteSpace=wrap;html=1;strokeWidth=2;fillWeight=4;hachureGap=8;hachureAngle=45;fillColor=#d5e8d4;sketch=1;fontSize=24;strokeColor=#82b366;" vertex="1" parent="1">
          <mxGeometry x="485" y="670" width="130" height="40" as="geometry" />
        </mxCell>
        <mxCell id="5SBofJwupiwyT_a2tiZA-28" value="广告数据库" style="shape=cylinder3;whiteSpace=wrap;html=1;boundedLbl=1;backgroundOutline=1;size=15;fontSize=24;fillColor=#dae8fc;strokeColor=#6c8ebf;" vertex="1" parent="1">
          <mxGeometry x="1450" y="597.5" width="140" height="75" as="geometry" />
        </mxCell>
        <mxCell id="5SBofJwupiwyT_a2tiZA-29" value="&lt;font style=&quot;font-size: 24px;&quot;&gt;面向服务&lt;/font&gt;" style="text;html=1;strokeColor=none;fillColor=none;align=center;verticalAlign=middle;whiteSpace=wrap;rounded=0;" vertex="1" parent="1">
          <mxGeometry x="-150" y="180" width="230" height="30" as="geometry" />
        </mxCell>
        <mxCell id="5SBofJwupiwyT_a2tiZA-31" value="用户服务" style="rounded=1;whiteSpace=wrap;html=1;strokeWidth=2;fillWeight=4;hachureGap=8;hachureAngle=45;fillColor=#dae8fc;sketch=1;fontSize=24;strokeColor=#6c8ebf;" vertex="1" parent="1">
          <mxGeometry x="1130" y="35" width="160" height="80" as="geometry" />
        </mxCell>
        <mxCell id="5SBofJwupiwyT_a2tiZA-32" value="物流服务" style="rounded=1;whiteSpace=wrap;html=1;strokeWidth=2;fillWeight=4;hachureGap=8;hachureAngle=45;fillColor=#dae8fc;sketch=1;fontSize=24;strokeColor=#6c8ebf;" vertex="1" parent="1">
          <mxGeometry x="1130" y="675" width="160" height="80" as="geometry" />
        </mxCell>
        <mxCell id="5SBofJwupiwyT_a2tiZA-33" value="订单服务" style="rounded=1;whiteSpace=wrap;html=1;strokeWidth=2;fillWeight=4;hachureGap=8;hachureAngle=45;fillColor=#dae8fc;sketch=1;fontSize=24;strokeColor=#6c8ebf;" vertex="1" parent="1">
          <mxGeometry x="1130" y="370" width="160" height="80" as="geometry" />
        </mxCell>
        <mxCell id="5SBofJwupiwyT_a2tiZA-34" value="商品服务" style="rounded=1;whiteSpace=wrap;html=1;strokeWidth=2;fillWeight=4;hachureGap=8;hachureAngle=45;fillColor=#dae8fc;sketch=1;fontSize=24;strokeColor=#6c8ebf;" vertex="1" parent="1">
          <mxGeometry x="1130" y="205" width="160" height="80" as="geometry" />
        </mxCell>
        <mxCell id="5SBofJwupiwyT_a2tiZA-35" value="广告服务" style="rounded=1;whiteSpace=wrap;html=1;strokeWidth=2;fillWeight=4;hachureGap=8;hachureAngle=45;fillColor=#dae8fc;sketch=1;fontSize=24;strokeColor=#6c8ebf;" vertex="1" parent="1">
          <mxGeometry x="1130" y="525" width="160" height="80" as="geometry" />
        </mxCell>
        <mxCell id="5SBofJwupiwyT_a2tiZA-53" style="edgeStyle=none;rounded=0;orthogonalLoop=1;jettySize=auto;html=1;entryX=0;entryY=0.5;entryDx=0;entryDy=0;fontSize=48;" edge="1" parent="1" source="5SBofJwupiwyT_a2tiZA-49" target="5SBofJwupiwyT_a2tiZA-38">
          <mxGeometry relative="1" as="geometry" />
        </mxCell>
        <mxCell id="5SBofJwupiwyT_a2tiZA-49" value="&lt;font style=&quot;font-size: 48px;&quot;&gt;服&lt;br&gt;务&lt;br&gt;注&lt;br&gt;册&lt;br&gt;中&lt;br&gt;心&lt;/font&gt;" style="rounded=1;whiteSpace=wrap;html=1;strokeWidth=2;fillWeight=4;hachureGap=8;hachureAngle=45;fillColor=#d5e8d4;sketch=1;dashed=1;dashPattern=1 4;strokeColor=#82b366;" vertex="1" parent="1">
          <mxGeometry x="810" y="70" width="130" height="650" as="geometry" />
        </mxCell>
        <mxCell id="5SBofJwupiwyT_a2tiZA-54" value="服务层" style="text;strokeColor=none;fillColor=none;html=1;fontSize=24;fontStyle=1;verticalAlign=middle;align=center;dashed=1;dashPattern=1 4;" vertex="1" parent="1">
          <mxGeometry x="1290" y="-40" width="100" height="40" as="geometry" />
        </mxCell>
        <mxCell id="5SBofJwupiwyT_a2tiZA-56" value="展现层" style="text;strokeColor=none;fillColor=none;html=1;fontSize=24;fontStyle=1;verticalAlign=middle;align=center;dashed=1;dashPattern=1 4;" vertex="1" parent="1">
          <mxGeometry x="580" y="10" width="100" height="40" as="geometry" />
        </mxCell>
      </root>
    </mxGraphModel>
  </diagram>
</mxfile>
